PathFileType	4	(X/Y/Z)	52_1_16_p1_0-252_filt_butterworth.trc
DataRate	CameraRate	NumFrames	NumMarkers	Units	OrigDataRate	OrigDataStartFrame	OrigNumFrames
59.0	59.0	7	27	m	59.0	189	252
Frame#	Time	RHip			RKnee			RAnkle			RBigToe			RSmallToe			RHeel			LHip			LKnee			LAnkle			LBigToe			LSmallToe			LHeel			Neck			Head			Nose			RShoulder			RElbow			RWrist			RThumb			RIndex			RPinky			LShoulder			LElbow			LWrist			LThumb			LIndex			LPinky			
		X1	Y1	Z1	X2	Y2	Z2	X3	Y3	Z3	X4	Y4	Z4	X5	Y5	Z5	X6	Y6	Z6	X7	Y7	Z7	X8	Y8	Z8	X9	Y9	Z9	X10	Y10	Z10	X11	Y11	Z11	X12	Y12	Z12	X13	Y13	Z13	X14	Y14	Z14	X15	Y15	Z15	X16	Y16	Z16	X17	Y17	Z17	X18	Y18	Z18	X19	Y19	Z19	X20	Y20	Z20	X21	Y21	Z21	X22	Y22	Z22	X23	Y23	Z23	X24	Y24	Z24	X25	Y25	Z25	X26	Y26	Z26	X27	Y27	Z27	
189	3.2033898305084745	0.21384909690972437	0.4574906655670949	0.5153477488475259	0.13313422230161498	0.6429895267433026	0.9209925340622593	0.03768797990607601	0.7290971867624108	1.2589362715722543	0.0053737751339426685	0.6178066282628417	1.3189070890769095	0.06180892751695889	0.6221875721601309	1.326627013522512	-0.002029135904981683	0.8591863638794289	1.3231836206658538	0.03374807472564248	0.4872443535156218	0.4656185370966759	-0.08822284874833995	0.6726982079048835	0.8813144686912099	-0.1557509566371107	0.7524201624743255	1.2263321176864377	-0.14576427701660916	0.5786255620290055	1.2519853007845292	-0.19900569271316937	0.6388345340795091	1.2571866427093088	-0.15238967464002204	0.8077573153003117	1.2779585747028586	0.2495725060315397	0.3981667960377412	0.0005206376152274505	0.24661184811793352	0.25567971539008844	-0.2409157532546794	0.2514483319114981	0.25862274541107777	-0.08287144429312414	0.37740346355213267	0.3976916818220875	0.1088364094076368	0.3668318522369962	0.36075629902467815	0.3644237053586461	0.1968321221576047	0.23463728808273487	0.27973113214866707	0.08186034119608634	0.23838401599906353	0.1925483507690886	0.05531897789737446	0.20009385433826135	0.21688447873900407	0.06598659394015415	0.19951347159201144	0.289090232765958	0.07876212551416654	0.45540844543510606	0.031093027337711986	-0.04374756464734542	0.5474323397032194	0.22162452487253903	0.032686660469715696	0.3263769320128718	0.2537908703393616	0.07584011780023311	0.20553104372329387	0.21571530707164788	0.06770522119722845	0.16467552118780537	0.22745727845671454	0.05839374391543432	0.17100595606071997	0.28792147651223815
190	3.2203389830508478	0.2134203192346178	0.45862758161680955	0.5174931537964667	0.13348538857840606	0.6430127443578934	0.9213977921648128	0.037695507675837056	0.7290683785798202	1.2589211265101634	0.005204918077888713	0.6160560142287248	1.318123428142156	0.06351050611716746	0.6220990012273268	1.3258298408076228	-0.002004458248162968	0.8591120744310208	1.3229611461534179	0.03039632075098115	0.49371452198317395	0.46898753380871194	-0.08826393650705623	0.6735426158458684	0.8819326600876265	-0.15576911659540588	0.7519372826514223	1.226326433198996	-0.14579017321237422	0.5787261596678581	1.2521155085651328	-0.19901437060703858	0.6388107645372761	1.257184028143133	-0.1523377784256548	0.8075818720699499	1.277842810295908	0.25088218912279703	0.3983988846908749	0.00021204169034875586	0.2505352954931841	0.25673110939410226	-0.24177724653836163	0.25343179250805814	0.25420882361367597	-0.0835552579703051	0.3788960091382092	0.39813318857896335	0.11030323929139856	0.3708160799047096	0.36799065014638077	0.3659669116283912	0.19947940719729274	0.23462770537882724	0.30089434076054633	0.08836984959649695	0.22337260484927757	0.2153798029795717	0.05840254938353018	0.18951158849648275	0.24556175042509104	0.06470433759536737	0.20756338486734696	0.31781171466538427	0.07800032633651582	0.45107545873362276	0.03083996266512853	-0.04355020819885842	0.5506948725939017	0.21584822473791432	0.03200310411491279	0.3275237541969086	0.2712380011028491	0.0771673092695772	0.19118378734342414	0.2392271735509376	0.06496250523769383	0.1603297262577505	0.25695895347926806	0.05542742131986671	0.17254173341864115	0.3163443042595732
191	3.23728813559322	0.2121229988390172	0.4595295984053713	0.5201760807348352	0.13368524511812382	0.6431585961919455	0.9215264630063102	0.03768243350246352	0.7290321961387987	1.2589163905170722	0.004685807390715144	0.6121385421195399	1.3165480835274277	0.06476060129812086	0.6216354753125481	1.3255591305167016	-0.0020610194754491	0.8590887504188405	1.3230058017343984	0.025471684930870972	0.5015395234686508	0.4742072674341701	-0.08830554010962315	0.6739496177275628	0.8820432503337994	-0.15571918028049336	0.7517818780937546	1.2264524634211118	-0.14582470770402384	0.578857381470675	1.2521953634404361	-0.19903647885598727	0.6387939071953381	1.2571914550924483	-0.15230594050183469	0.807443958981638	1.2777461592771453	0.25282692097727444	0.3985724821333244	-0.0002930681952704814	0.25464811222918404	0.258802939117258	-0.24221428274413156	0.25541822455728713	0.24971244688616112	-0.0845373767683501	0.37981222201743603	0.39831873462902495	0.11068814247593979	0.3753531368323648	0.3800271977005399	0.3666709542080469	0.1992811879370926	0.23807426408708646	0.31771632008606965	0.09048707379405595	0.21848077969559743	0.24044708941322024	0.06007134527654967	0.18237166414424508	0.27596018494993463	0.06681053141725894	0.2214577170619556	0.34664385857535884	0.07746570949564643	0.4476675078057568	0.030317233464946445	-0.043882423425415686	0.5503765938672537	0.21312111355235125	0.030990549011615104	0.3255607118820443	0.28559900747110684	0.07654939271064778	0.18622835196502907	0.26159268982397077	0.062306885940209215	0.15990690301104996	0.28545279457108763	0.05243417766825897	0.18273338071831569	0.3432875472618778
192	3.254237288135593	0.21036875311681622	0.45949266210294876	0.5232224292968749	0.13371066591551936	0.6433223567988275	0.9215177455661933	0.03765537694189095	0.7290040263403645	1.258930036663663	0.003910282328135217	0.607171949335282	1.3146524030649218	0.06417496875184182	0.6213762647366737	1.3263674147269109	-0.0021709735142791996	0.8593965887675148	1.3237222077885977	0.020060415882014952	0.5093884201368593	0.48050629317524113	-0.08835394091318678	0.6740149337889794	0.8819333224696091	-0.15568932563947024	0.7518153401720604	1.2265555942373132	-0.14586575384050768	0.5789936061647413	1.252221215964981	-0.1990765728015377	0.638794302723983	1.2572017315765822	-0.15225665815235326	0.8075053105925035	1.2776968892790441	0.2545209989769893	0.3987226659928009	-0.0007288237470808114	0.2587397743476153	0.26264300074234836	-0.24256635757078243	0.2579049981823715	0.2457354298294512	-0.0854912964621471	0.38008008701590534	0.39824399854538056	0.11054275736980279	0.3800174059472357	0.39675875460295607	0.3670360748116098	0.19742218396562247	0.24348878504457455	0.33186465312167457	0.0869252326090069	0.2251872846491159	0.27052797251350075	0.05910102958516905	0.18685595279926517	0.30894766088837683	0.07304598001404422	0.23812115911802156	0.37393231332212734	0.07737152261165932	0.4459422708449253	0.029358473966844198	-0.04467946433616314	0.5454557107715762	0.21174800099372693	0.029554834389150252	0.32025435380698997	0.29907310631682327	0.07596914251046727	0.19160054143592012	0.28789272894515516	0.06251838651436521	0.16702067156447703	0.31625705776262236	0.051848211538109125	0.19973067268820216	0.3694181091977927
193	3.2711864406779663	0.20886708998443637	0.45811832916115547	0.5260018320299497	0.13363453821500193	0.6434377808555116	0.9214822518260191	0.037631706849242365	0.7289909914012807	1.2589538648435328	0.0032206780092583556	0.6034904502965794	1.3133258745880958	0.06214541822206368	0.6213123394321198	1.3278932912972314	-0.0022662587382856567	0.8602426044127338	1.3253348070501638	0.014998396807757755	0.5172030891159554	0.48624729436078523	-0.08842185483163661	0.6739303822731211	0.8818228132094689	-0.15568285711290683	0.7518774601336567	1.226645269404653	-0.14590235755072412	0.5790725147550497	1.2522214275990438	-0.19912222104347205	0.6387918638671642	1.2572010725281875	-0.15214526797457045	0.807756307497309	1.2776886752366878	0.2552702129608388	0.3988382208358763	-0.0009019840026823465	0.26265517786078635	0.2673258352380604	-0.24281923324040589	0.26039509851803444	0.2430949897679008	-0.08625706324689171	0.3803405766359938	0.3970220873939901	0.11042377934469712	0.38370628262491235	0.4134934270439589	0.3673764859485178	0.19510198948346424	0.24849533110685706	0.347649610630274	0.07969987557263801	0.23693326895859368	0.30671080568180975	0.05741463734964326	0.20303399491034244	0.34515085201976986	0.08164256267548214	0.2522910382376185	0.4003317834224383	0.07757732994689603	0.44504511034335353	0.027800142519304447	-0.04600517365806473	0.5363430427603365	0.21090041100606938	0.027599049547721168	0.3136066789444669	0.3162252625019149	0.07736763059099104	0.2066371898128667	0.32153564587008965	0.06750836559691648	0.18648541414871758	0.35194602108262607	0.05448327238544089	0.2230571995340048	0.3972206178594573
194	3.288135593220339	0.2080609964203056	0.45698183945176774	0.5278563451412958	0.13349287505105753	0.6434586169627479	0.9214550053696611	0.037620245833751724	0.7289912762300739	1.258967534017364	0.0028444232714793997	0.6020969465115268	1.312910427504906	0.06023297604693007	0.6213539482175147	1.3292090422593932	-0.002324268892840319	0.8613719686351885	1.327404091921983	0.00980456507051234	0.526082527545772	0.4906443021279712	-0.08854557025975715	0.6738307179124745	0.8821263895701439	-0.15568736496307156	0.7518991141386545	1.2267315572887973	-0.14592522016015982	0.5790688457503659	1.252213506396602	-0.19914744771889561	0.6387742519295034	1.2571896473058217	-0.15202308969940925	0.8080161425383686	1.2777065137286616	0.2553259889378284	0.39890725476882216	-0.0009577995207170876	0.2664385872482642	0.27092562401824366	-0.24295645030792778	0.2623481861720941	0.24118377853071896	-0.08682985219987846	0.38121362727956454	0.39339614981359367	0.11069001077415033	0.3858031574531786	0.425862151551372	0.3683652438504655	0.1933037595238673	0.25419864053839875	0.36661173383477624	0.07291989666889717	0.24813815089727284	0.34650617143311524	0.05770065152889918	0.22435949171575353	0.3824140251291459	0.09046678074471819	0.2596993613706495	0.4281567339081092	0.07781408316933915	0.4442704160780621	0.026038885990078302	-0.04803858138880726	0.5265215303672713	0.21139605373935116	0.02413405619103025	0.3093594898256028	0.3375320741552468	0.0798269113767518	0.22719384317541594	0.35678543289317	0.07518019849147776	0.21467837890164262	0.38898958620670615	0.058531885976231136	0.24834714932145777	0.42681391876557273
195	3.305084745762712	0.20782075312584847	0.45976493778219074	0.5284675798612166	0.13328014992331289	0.6433482961106043	0.9214456518165274	0.03761716609664914	0.7290068671742778	1.258939634057871	0.002727599563701855	0.602088192943253	1.3130323059297937	0.05928883436913783	0.6215494423199334	1.3298404420305994	-0.002375426913458259	0.8621625639116113	1.3289493745290994	0.003964414328717405	0.5366128280417141	0.4940279607715477	-0.08876323378007225	0.6737907260953587	0.883280406851995	-0.1556968728225685	0.7518823365237344	1.2267902271828661	-0.14593179651650176	0.5790260856095917	1.2522056650391757	-0.19914456672708436	0.6387674181751352	1.257187003903662	-0.15199270704612625	0.8081378402094218	1.2777363118327796	0.25524951057469447	0.3988996216251404	-0.001286560723757231	0.270689435850371	0.2729368798896008	-0.24309570397632743	0.26399324543662517	0.23834807828352086	-0.08735064703585492	0.3827186332765035	0.38729027874826094	0.11157027335551005	0.3867867677095466	0.434243727216308	0.37075702851411424	0.19270103043173484	0.26297577820197554	0.3866912554907808	0.06993237763279841	0.2563837807143998	0.38503589478620726	0.06020116149223405	0.24275400344538084	0.4175235917902408	0.09934622910258659	0.25942981531138765	0.4567655718301923	0.07791686859114241	0.4436438144298405	0.024832757964670715	-0.0506443172850354	0.5197857354425319	0.2140634759543871	0.01810889187016879	0.309279594894298	0.3568123130451269	0.0802742382791997	0.24518155795604962	0.3829028978694108	0.07939046172246247	0.23981129240497429	0.4198991557021451	0.061279540704722246	0.2687965184949128	0.4528438044762992
